<?xml version="1.0" encoding="iso-8859-1"?>
<!-- Generator: Adobe Illustrator 21.0.0, SVG Export Plug-In . SVG Version: 6.00 Build 0)  -->
<svg version="1.1" id="Layer_1" xmlns="http://www.w3.org/2000/svg" xmlns:xlink="http://www.w3.org/1999/xlink" x="0px" y="0px"
	 viewBox="0 0 99.313 99.313" style="enable-background:new 0 0 99.313 99.313;" xml:space="preserve">
<g>
	<path style="fill:#231F20;" d="M81.384,86.748h-5.755c-0.477-3.809-2.12-14.695-5.934-21.204
		c-3.835-6.551-9.995-12.525-12.64-14.939c2.627-2.491,8.8-8.679,12.64-15.239c3.851-6.573,5.49-17.614,5.949-21.318h5.741
		c0.828,0,1.5-0.672,1.5-1.5c0-0.829-0.672-1.5-1.5-1.5H17.579c-0.828,0-1.5,0.671-1.5,1.5c0,0.828,0.672,1.5,1.5,1.5h5.745
		c0.459,3.705,2.094,14.746,5.944,21.318c3.847,6.57,9.772,12.769,12.259,15.24c-2.504,2.395-8.417,8.379-12.258,14.938
		c-3.814,6.509-5.453,17.396-5.93,21.205H17.58c-0.828,0-1.5,0.672-1.5,1.5c0,0.829,0.672,1.5,1.5,1.5h7.096
		c0.001,0,0.002,0,0.002,0s0,0,0.001,0h56.706c0.828,0,1.5-0.671,1.5-1.5C82.884,87.42,82.212,86.748,81.384,86.748z M31.856,67.06
		c4.634-7.911,12.765-15.242,12.847-15.315c0.313-0.281,0.494-0.68,0.499-1.101s-0.168-0.824-0.475-1.111
		c-0.082-0.077-8.222-7.743-12.871-15.684c-3.411-5.823-5.002-15.964-5.504-19.802h46.264c-0.502,3.836-2.094,13.973-5.51,19.802
		c-4.631,7.913-13.195,15.581-13.281,15.657c-0.324,0.289-0.508,0.704-0.503,1.137c0.005,0.434,0.197,0.845,0.528,1.126
		c0.085,0.073,8.634,7.396,13.257,15.29c3.378,5.767,4.974,15.767,5.493,19.688H26.366C26.883,82.829,28.474,72.833,31.856,67.06z"
		/>
	<path style="fill:#231F20;" d="M50.982,68.531V45.499l13.727-15.393c0.394-0.441,0.491-1.072,0.25-1.612
		c-0.242-0.54-0.778-0.887-1.369-0.887H35.375c-0.591,0-1.127,0.347-1.369,0.887c-0.241,0.54-0.144,1.17,0.25,1.612l13.727,15.393
		v23.032l-13.81,10.767c-0.506,0.394-0.705,1.064-0.497,1.67c0.209,0.605,0.778,1.012,1.419,1.012H63.87
		c0.641,0,1.21-0.407,1.419-1.012c0.208-0.606,0.009-1.277-0.497-1.67L50.982,68.531z M60.241,30.608l-10.76,12.066l-10.76-12.066
		H60.241z M39.457,78.981l10.024-7.815l10.024,7.815H39.457z"/>
</g>
</svg>
