<svg id="Layer_1" data-name="Layer 1" xmlns="http://www.w3.org/2000/svg" viewBox="0 0 100 100"><title>Artboard 13</title><path d="M36.81,70.52a15,15,0,0,1-21.34,0,15.48,15.48,0,0,1-1.29-20.14,1.5,1.5,0,0,0-.23-2.05c-.41-.35-.74-.65-1-.93a15.46,15.46,0,0,1,0-21.65,14.9,14.9,0,0,1,14-4.08,1.5,1.5,0,0,0,1.82-1.26,10.26,10.26,0,0,1,2.88-5.9,10.07,10.07,0,0,1,14.36,0,10.44,10.44,0,0,1,1,1.24,1.5,1.5,0,0,0,2.32.14l.19-.22.17-.19a15,15,0,0,1,21.34,0,15.46,15.46,0,0,1,0,21.65,1.5,1.5,0,0,0,2.13,2.11,18.47,18.47,0,0,0,0-25.87,18,18,0,0,0-24.84-.73l-.22-.23a13.07,13.07,0,0,0-18.63,0,13.18,13.18,0,0,0-3.42,6.06,17.86,17.86,0,0,0-15.3,5.18,18.47,18.47,0,0,0,0,25.87l.19.19a18.5,18.5,0,0,0,2.34,22.93,18,18,0,0,0,25.61,0,1.5,1.5,0,0,0-2.13-2.11Z"/><path d="M39,38.42a1.5,1.5,0,0,0,0,2.12l28,29a1.5,1.5,0,1,0,2.16-2.08l-28-29A1.5,1.5,0,0,0,39,38.42Z"/><path d="M74,64.5a1.5,1.5,0,0,0,1.32-2.21l-16-30a1.5,1.5,0,0,0-2.65,1.41l16,30A1.5,1.5,0,0,0,74,64.5Z"/><path d="M63.79,75.26a1.5,1.5,0,0,0-.54-2.05l-29-17a1.5,1.5,0,0,0-1.52,2.59l29,17a1.5,1.5,0,0,0,2.05-.54Z"/><path d="M93.54,60.92a1.5,1.5,0,0,0-2.12,0l-29,30A1.5,1.5,0,0,0,64.58,93l29-30A1.5,1.5,0,0,0,93.54,60.92Z"/></svg>